<svg xmlns="http://www.w3.org/2000/svg" viewBox="0 0 58 54"><defs><style>.cls-1{fill:#1abc9c;}</style></defs><title>icon02</title><g id="Layer_2" data-name="Layer 2"><g id="Layer_1-2" data-name="Layer 1"><path class="cls-1" d="M0,0H58V54H0ZM55.65,51.62V2.38H2.35V51.62ZM6.9,23.5H4.7V14.13H6.9V23.5ZM6.9,40H4.7V30.64H6.9V40ZM9.25,7H48.61V47H9.25ZM46.4,44.63V9.37H11.6V44.63ZM29,16.37a9.93,9.93,0,0,1,4,.84,9.42,9.42,0,0,1,3.32,2.38,10.7,10.7,0,0,1,2.21,3.28,10.69,10.69,0,0,1,0,8.26,10.7,10.7,0,0,1-2.21,3.28A9.42,9.42,0,0,1,33,36.79a9.93,9.93,0,0,1-4,.84,9.62,9.62,0,0,1-3.87-.77,11.23,11.23,0,0,1-3.17-2,10.9,10.9,0,0,1-2.28-2.93,9.15,9.15,0,0,1-1-3.78H16.16V25.88h2.48a9.15,9.15,0,0,1,1-3.78A10.9,10.9,0,0,1,22,19.17a11.23,11.23,0,0,1,3.17-2A9.79,9.79,0,0,1,29,16.37Zm0,18.88a7,7,0,0,0,3.11-.7,11.13,11.13,0,0,0,2.55-1.67,9,9,0,0,0,1.8-2.66,7.86,7.86,0,0,0,0-6.44,9,9,0,0,0-1.8-2.66,11.13,11.13,0,0,0-2.55-1.67,7,7,0,0,0-3.11-.7,7.53,7.53,0,0,0-2.9.56,8.42,8.42,0,0,0-4.28,3.77,7.08,7.08,0,0,0-.83,2.8h8v2.24H21a7,7,0,0,0,.83,2.8,8.42,8.42,0,0,0,4.28,3.77A7.53,7.53,0,0,0,29,35.25Z"/></g></g></svg>